<?xml version="1.0" encoding="utf-8"?>
<svg version="1.1" id="artwork" xmlns="http://www.w3.org/2000/svg" xmlns:xlink="http://www.w3.org/1999/xlink" x="0px" y="0px"
	 viewBox="0 0 414 504" style="enable-background:new 0 0 414 504;" xml:space="preserve">
<path id="IBM_Security_Shield" d="M207,72L72,139.3v158.2C72,371.7,132.6,432,207,432s135-60.3,135-134.5V139.3L207,72z
	 M283.8,379.3L207,341v25.1l56.7,28.2c-16.6,9.7-36,15.3-56.7,15.3c-62,0-112.5-50.3-112.5-112.1V153.1l112.5-56l112.5,56v42.2
	l-112.5-56v25.1l112.5,56v42.2l-112.5-56v25.1l112.5,56v9.9c0,10.5-1.5,20.6-4.2,30.2l-108.3-54v25.1l100.1,49.9
	C301.1,360.2,293.2,370.5,283.8,379.3z"/>
</svg>
